<?xml version="1.0" encoding="UTF-8"?>
<svg version="1.1" xmlns="http://www.w3.org/2000/svg" width="2778" height="532">
<path d="M0 0 C65.1760811 -1.41331645 128.26257473 19.21714973 178.52148438 61.06201172 C179.04178223 61.4920752 179.56208008 61.92213867 180.09814453 62.36523438 C192.79319995 72.89257338 204.34748411 84.04710387 214.52148438 97.06201172 C215.40156128 98.15301339 216.28314204 99.24280322 217.16601562 100.33154297 C254.84592799 147.07480457 274.7235205 205.79151692 274.77148438 265.68701172 C274.77249649 266.83419174 274.77249649 266.83419174 274.77352905 268.00454712 C274.75381905 282.18746276 273.79326132 296.04544658 271.52148438 310.06201172 C271.37114746 311.01946289 271.22081055 311.97691406 271.06591797 312.96337891 C264.07664747 355.65381408 245.20156373 396.21809951 218.52148438 430.06201172 C217.34779297 431.55667969 217.34779297 431.55667969 216.15039062 433.08154297 C204.38390566 447.74245739 191.33917409 461.47433611 176.52148438 473.06201172 C175.5134375 473.86380859 174.50539063 474.66560547 173.46679688 475.49169922 C117.42290094 519.71593145 46.10876914 538.41279243 -24.61279297 530.42138672 C-72.08058413 524.4687041 -119.00015844 505.77372891 -155.97363281 475.12792969 C-157.61358649 473.7753675 -159.26593972 472.43766779 -160.93164062 471.11694336 C-167.57758623 465.81349369 -173.7174379 460.13563336 -179.69555664 454.10571289 C-181.16855136 452.62195746 -182.65200236 451.14926216 -184.13671875 449.67724609 C-190.02434076 443.79923258 -195.45855823 437.70758347 -200.47851562 431.06201172 C-201.04143311 430.31685303 -201.60435059 429.57169434 -202.18432617 428.80395508 C-207.80534991 421.25759037 -213.31348767 413.59523928 -218.41601562 405.68701172 C-219.06441406 404.68927734 -219.7128125 403.69154297 -220.38085938 402.66357422 C-221.47851562 400.06201172 -221.47851562 400.06201172 -220.74369812 398.10919189 C-219.44247584 396.00369608 -218.0930904 394.44199808 -216.33325195 392.70556641 C-215.69531204 392.07100525 -215.05737213 391.43644409 -214.40010071 390.78265381 C-213.71054794 390.10656067 -213.02099518 389.43046753 -212.31054688 388.73388672 C-211.597509 388.02605042 -210.88447113 387.31821411 -210.14982605 386.58892822 C-207.86825368 384.325154 -205.58013221 382.06815501 -203.29101562 379.81201172 C-201.02057687 377.56934666 -198.75166634 375.32519013 -196.48576355 373.07794189 C-195.07722531 371.68148771 -193.66602436 370.28771205 -192.25166321 368.89715576 C-189.15581425 365.83223643 -186.16341344 362.74337753 -183.33837891 359.42626953 C-177.86689962 353.08566937 -171.81937033 347.28031211 -165.88867188 341.37451172 C-164.57566256 340.06337071 -163.26287625 338.75200635 -161.95030212 337.44042969 C-158.51831906 334.01223934 -155.08334213 330.5870645 -151.64770508 327.16253662 C-148.13309375 323.65820968 -144.62136073 320.15100089 -141.109375 316.64404297 C-134.23521518 309.78056314 -127.35788493 302.92026971 -120.47851562 296.06201172 C-117.47774527 297.49891962 -115.41219816 298.89785153 -113.08789062 301.29248047 C-112.14623047 302.25057617 -112.14623047 302.25057617 -111.18554688 303.22802734 C-110.53972656 303.89511719 -109.89390625 304.56220703 -109.22851562 305.24951172 C-107.9551105 306.5580722 -106.67906377 307.86406721 -105.40039062 309.16748047 C-104.83932617 309.74651123 -104.27826172 310.32554199 -103.70019531 310.92211914 C-101.81994109 312.73315521 -99.90224344 314.42480525 -97.92089844 316.12182617 C-93.05647133 320.35251046 -88.52442211 324.90245136 -83.98779297 329.47756958 C-82.44158823 331.03674898 -80.89209666 332.59259793 -79.34179688 334.14770508 C-75.49507337 338.00766975 -71.65386846 341.87311074 -67.8125 345.73840332 C-64.55425867 349.01650614 -61.29388572 352.29246164 -58.03076172 355.56570435 C-56.51775511 357.08510637 -55.00783593 358.60752875 -53.49804688 360.13012695 C-48.86836684 364.78416164 -44.18139323 369.30125741 -39.19458008 373.57302856 C-36.79766867 375.65276438 -34.55822153 377.86993933 -32.32226562 380.12060547 C-31.44570312 381.00039063 -30.56914062 381.88017578 -29.66601562 382.78662109 C-28.77914062 383.681875 -27.89226562 384.57712891 -26.97851562 385.49951172 C-26.06070313 386.42183594 -25.14289063 387.34416016 -24.19726562 388.29443359 C-21.95536508 390.54801071 -19.71584963 392.80390247 -17.47851562 395.06201172 C-14.46463489 393.71143058 -12.37504793 392.20596397 -10.05273438 389.86669922 C-9.42044922 389.23248047 -8.78816406 388.59826172 -8.13671875 387.94482422 C-7.48638672 387.28224609 -6.83605469 386.61966797 -6.16601562 385.93701172 C-5.52728516 385.29763672 -4.88855469 384.65826172 -4.23046875 383.99951172 C-1.13043043 380.87120557 1.85057703 377.69041747 4.72612 374.35440063 C8.12899948 370.46008498 11.68372212 366.76998442 15.35546875 363.13037109 C15.99873611 362.488564 16.64200348 361.8467569 17.30476379 361.1855011 C18.6873091 359.80673057 20.07100724 358.42911521 21.45576477 357.05256653 C23.65339399 354.8678259 25.84777472 352.67986745 28.04138184 350.49108887 C33.48740846 345.05835582 38.93888791 339.6311051 44.39019775 334.20367432 C49.00701111 329.60666281 53.6217226 325.00756037 58.23371887 320.40571594 C60.38467069 318.26119662 62.5386361 316.11973688 64.69274902 313.97839355 C66.02448221 312.6502964 67.35607323 311.32205668 68.6875 309.99365234 C69.27783524 309.40848343 69.86817047 308.82331451 70.47639465 308.22041321 C74.07524755 304.62201073 77.44635274 300.88355535 80.7757225 297.03557587 C83.54655765 293.90317792 86.48942398 290.95468316 89.45068359 288.00341797 C90.10358871 287.34876053 90.75649384 286.69410309 91.42918396 286.01960754 C93.55902783 283.88540948 95.69245177 281.75483387 97.82617188 279.62451172 C99.31607422 278.13393506 100.80582814 276.64321004 102.29544067 275.15234375 C105.4020449 272.04427178 108.51043461 268.93799974 111.62011719 265.83300781 C115.61517595 261.84368069 119.60568183 257.84983406 123.5948925 253.85466003 C126.66243529 250.78351627 129.73234015 247.7147426 132.80298233 244.646698 C134.27659732 243.17375177 135.74946521 241.70005772 137.22158432 240.22561646 C139.2682055 238.17647265 141.31797501 236.1305327 143.36865234 234.08544922 C143.98055923 233.4715181 144.59246613 232.85758698 145.22291565 232.22505188 C149.40721499 228.06201172 149.40721499 228.06201172 150.52148438 228.06201172 C150.52148438 267.99201172 150.52148438 307.92201172 150.52148438 349.06201172 C167.02148438 349.06201172 183.52148438 349.06201172 200.52148438 349.06201172 C200.52148438 280.42201172 200.52148438 211.78201172 200.52148438 141.06201172 C132.21148437 141.06201172 63.90148437 141.06201172 -6.47851562 141.06201172 C-6.47851562 158.22201172 -6.47851562 175.38201172 -6.47851562 193.06201172 C33.12148438 193.06201172 72.72148437 193.06201172 113.52148438 193.06201172 C111.68041309 196.74415428 110.26691722 198.55908717 107.39648438 201.37451172 C106.67203125 202.09251953 105.94757813 202.81052734 105.20117188 203.55029297 C103.14184192 205.48053956 101.06008353 207.32382638 98.91845703 209.15844727 C94.23516589 213.24897688 89.86239948 217.6124772 85.49023438 222.03076172 C84.65488159 222.86990112 83.81952881 223.70904053 82.9588623 224.5736084 C80.31061351 227.23398072 77.66564031 229.89757185 75.02148438 232.56201172 C71.53485836 236.07538445 68.04483511 239.58533143 64.55273438 243.09326172 C63.7660437 243.88825073 62.97935303 244.68323975 62.16882324 245.50231934 C58.09014106 249.59886087 53.92404171 253.49375676 49.54406738 257.26428223 C45.69583031 260.68470514 42.11039365 264.3724155 38.49023438 268.03076172 C37.65488159 268.86990112 36.81952881 269.70904053 35.9588623 270.5736084 C33.31061351 273.23398072 30.66564031 275.89757185 28.02148438 278.56201172 C24.53485836 282.07538445 21.04483511 285.58533143 17.55273438 289.09326172 C16.37269836 290.28574524 16.37269836 290.28574524 15.16882324 291.50231934 C10.99833507 295.69106884 6.73798165 299.68689523 2.25756836 303.54187012 C0.10846149 305.42366085 -1.87572654 307.42457959 -3.83789062 309.49951172 C-4.56105469 310.24845703 -5.28421875 310.99740234 -6.02929688 311.76904297 C-7.51855791 313.32178937 -9.00013238 314.88193839 -10.47460938 316.44873047 C-11.55162109 317.55667969 -11.55162109 317.55667969 -12.65039062 318.68701172 C-13.29073242 319.35990234 -13.93107422 320.03279297 -14.59082031 320.72607422 C-16.47851562 322.06201172 -16.47851562 322.06201172 -18.39245605 321.82925415 C-20.79326262 320.94624933 -21.95616528 319.9413675 -23.74316406 318.12207031 C-24.35770447 317.50407562 -24.97224487 316.88608093 -25.60540771 316.24935913 C-26.25962708 315.57651886 -26.91384644 314.90367859 -27.58789062 314.21044922 C-28.27353088 313.51819244 -28.95917114 312.82593567 -29.66558838 312.11270142 C-31.86043321 309.89444748 -34.04491207 307.66632756 -36.22851562 305.43701172 C-38.3994609 303.23080186 -40.57258414 301.0268047 -42.74859619 298.82559204 C-44.10100292 297.45645357 -45.45029714 296.08423067 -46.7958374 294.70834351 C-50.55219123 290.89353981 -54.43418292 287.32137643 -58.48760986 283.82559204 C-61.86871967 280.83054384 -65.0246467 277.61854779 -68.19726562 274.40576172 C-69.2505304 273.34681702 -69.2505304 273.34681702 -70.32507324 272.26647949 C-73.29235329 269.28303797 -76.25356925 266.29360462 -79.21533203 263.3046875 C-81.39470028 261.10710593 -83.57716509 258.91263234 -85.75976562 256.71826172 C-86.41521362 256.05451538 -87.07066162 255.39076904 -87.74597168 254.70690918 C-91.59206396 250.84078644 -95.55902596 247.1887076 -99.68737793 243.62606812 C-101.87136134 241.71897118 -103.93656607 239.71757026 -105.97851562 237.65966797 C-106.71972656 236.91523438 -107.4609375 236.17080078 -108.22460938 235.40380859 C-108.96839844 234.65164062 -109.7121875 233.89947266 -110.47851562 233.12451172 C-111.25324219 232.34527344 -112.02796875 231.56603516 -112.82617188 230.76318359 C-114.71262319 228.86508751 -116.59667808 226.96468023 -118.47851562 225.06201172 C-122.25400017 226.63080513 -124.64404857 228.98102904 -127.51519775 231.85818481 C-128.00864174 232.34991995 -128.50208572 232.84165508 -129.01048255 233.34829128 C-130.66119155 234.99570844 -132.30465483 236.65016747 -133.94824219 238.3046875 C-135.13065355 239.48766305 -136.31350557 240.6701983 -137.49676514 241.85232544 C-140.70753135 245.0625174 -143.91209009 248.27884224 -147.11558247 251.49629068 C-150.4645735 254.85777698 -153.81922218 258.21360731 -157.17327881 261.57003784 C-163.52370254 267.92667987 -169.86901043 274.28840336 -176.21250319 280.65196121 C-183.43463236 287.89643844 -190.66243557 295.13524327 -197.89072466 302.37357354 C-212.75965081 317.26340963 -227.62142504 332.16036669 -242.47851562 347.06201172 C-243.46851563 346.73201172 -244.45851562 346.40201172 -245.47851562 346.06201172 C-246.30639648 344.1262207 -246.30639648 344.1262207 -246.94335938 341.55810547 C-247.18417236 340.60105713 -247.42498535 339.64400879 -247.6730957 338.65795898 C-247.91825928 337.61567139 -248.16342285 336.57338379 -248.41601562 335.49951172 C-248.67471436 334.4320874 -248.93341309 333.36466309 -249.19995117 332.26489258 C-265.63641164 262.54388687 -256.40269678 189.04678603 -218.91601562 127.43701172 C-208.46956157 110.69414198 -196.0771428 95.33994127 -182.47851562 81.06201172 C-181.9082666 80.46308105 -181.33801758 79.86415039 -180.75048828 79.24707031 C-172.74617428 70.90251375 -164.52557872 63.25576621 -155.23339844 56.36816406 C-153.46435156 55.05146946 -151.7169542 53.70952737 -149.97070312 52.36279297 C-107.30302354 19.81225202 -53.58680477 1.34072581 0 0 Z " fill="#9800CB" transform="translate(257.478515625,-0.06201171875)"/>
<path d="M0 0 C123.05833964 0 123.05833964 0 137 2.6875 C137.92095459 2.86337646 138.84190918 3.03925293 139.79077148 3.22045898 C170.19143143 9.32786319 199.75374435 25.21350638 217.375 51.375 C230.26663362 71.33921607 236.42260372 93.4475655 236.3125 117.1875 C236.30686035 118.46471924 236.3012207 119.74193848 236.29541016 121.05786133 C236.17220867 130.67184631 235.51425071 139.71449328 233 149 C232.81195801 149.71091797 232.62391602 150.42183594 232.43017578 151.15429688 C228.01548099 167.23966054 220.35946704 182.67287465 209 195 C207.77023438 196.34964844 207.77023438 196.34964844 206.515625 197.7265625 C183.88112934 221.47315766 150.58831426 234.14365087 118.12796021 235.34729004 C110.5548736 235.50743789 102.98409832 235.45227057 95.41015625 235.390625 C92.95146042 235.38472409 90.49275951 235.3806556 88.03405762 235.37841797 C79.04346044 235.3576755 70.0529717 235.30183216 61.0625 235.25 C40.911875 235.1675 20.76125 235.085 0 235 C0 157.45 0 79.9 0 0 Z M55 46 C55 93.52 55 141.04 55 190 C112.88099898 193.62006999 112.88099898 193.62006999 161.3125 169.125 C176.2566469 153.8447104 180.54120252 135.99529686 180.41918945 115.04321289 C179.91915727 94.40596235 172.83814461 78.34490989 158 64 C151.33016553 57.74573154 144.63194126 53.97183786 136 51 C135.17371094 50.70351562 134.34742188 50.40703125 133.49609375 50.1015625 C109.64206788 42.56085323 77.91938927 46 55 46 Z " fill="#FEFEFE" transform="translate(1909,148)"/>
<path d="M0 0 C16.5 0 33 0 50 0 C54.49888843 11.24722108 54.49888843 11.24722108 55.9284668 15.42236328 C56.41719772 16.84307884 56.41719772 16.84307884 56.915802 18.29249573 C57.25682953 19.29167526 57.59785706 20.2908548 57.94921875 21.3203125 C58.71492053 23.54826004 59.48062712 25.77620594 60.24633789 28.00415039 C60.84359177 29.74657516 60.84359177 29.74657516 61.45291138 31.52420044 C63.55854244 37.66548123 65.67279014 43.80378534 67.7890625 49.94140625 C68.00431894 50.5657575 68.21957539 51.19010876 68.44135475 51.83337975 C73.78286847 67.31957313 79.25324371 82.75967495 84.74291992 98.19384766 C85.08340363 99.15134415 85.42388733 100.10884064 85.77468872 101.09535217 C86.40464582 102.86598377 87.03526806 104.63637895 87.66671753 106.40647888 C89.15665431 110.59020054 90.61458844 114.78011701 92 119 C93.91158705 116.13261942 94.91688976 113.75662996 96.06860352 110.53027344 C96.67765533 108.83377907 96.67765533 108.83377907 97.29901123 107.10301208 C97.73787659 105.86761185 98.17674194 104.63221161 98.62890625 103.359375 C99.09534873 102.05573846 99.56217427 100.75223892 100.02935791 99.4488678 C101.02592103 96.66632656 102.02000228 93.88291633 103.01211548 91.0987854 C104.564116 86.74366666 106.12165493 82.39054332 107.68041992 78.0378418 C108.20437249 76.57457383 108.7283135 75.11130173 109.25224304 73.64802551 C109.51203131 72.92246775 109.77181957 72.19690998 110.03948021 71.44936562 C110.83047754 69.23952135 111.62092972 67.02948282 112.41120911 64.81938171 C116.82270841 52.48325837 121.26078785 40.1568875 125.7182312 27.83728027 C126.79497429 24.86094462 127.8703157 21.88410515 128.94555664 18.90722656 C129.59511525 17.1112921 130.2447675 15.3153915 130.89453125 13.51953125 C131.18305969 12.7203981 131.47158813 11.92126495 131.76885986 11.09791565 C132.03567566 10.36153366 132.30249146 9.62515167 132.57739258 8.86645508 C132.80558182 8.23564529 133.03377106 7.60483551 133.26887512 6.95491028 C134.14134136 4.62207595 135.07499761 2.31250598 136 0 C150.85 0 165.7 0 181 0 C185.49888843 11.24722108 185.49888843 11.24722108 186.9284668 15.42236328 C187.25428741 16.36950699 187.58010803 17.3166507 187.915802 18.29249573 C188.25682953 19.29167526 188.59785706 20.2908548 188.94921875 21.3203125 C189.71492053 23.54826004 190.48062712 25.77620594 191.24633789 28.00415039 C191.84359177 29.74657516 191.84359177 29.74657516 192.45291138 31.52420044 C194.55854244 37.66548123 196.67279014 43.80378534 198.7890625 49.94140625 C199.00431894 50.5657575 199.21957539 51.19010876 199.44135475 51.83337975 C204.78286847 67.31957313 210.25324371 82.75967495 215.74291992 98.19384766 C216.08340363 99.15134415 216.42388733 100.10884064 216.77468872 101.09535217 C217.40464582 102.86598377 218.03526806 104.63637895 218.66671753 106.40647888 C220.15665431 110.59020054 221.61458844 114.78011701 223 119 C224.91158705 116.13261942 225.91688976 113.75662996 227.06860352 110.53027344 C227.47463806 109.39927719 227.88067261 108.26828094 228.29901123 107.10301208 C228.95730927 105.24991173 228.95730927 105.24991173 229.62890625 103.359375 C230.09534873 102.05573846 230.56217427 100.75223892 231.02935791 99.4488678 C232.02592103 96.66632656 233.02000228 93.88291633 234.01211548 91.0987854 C235.564116 86.74366666 237.12165493 82.39054332 238.68041992 78.0378418 C239.20437249 76.57457383 239.7283135 75.11130173 240.25224304 73.64802551 C240.51203131 72.92246775 240.77181957 72.19690998 241.03948021 71.44936562 C241.83047754 69.23952135 242.62092972 67.02948282 243.41120911 64.81938171 C247.82270841 52.48325837 252.26078785 40.1568875 256.7182312 27.83728027 C257.79497429 24.86094462 258.8703157 21.88410515 259.94555664 18.90722656 C260.59511525 17.1112921 261.2447675 15.3153915 261.89453125 13.51953125 C262.18305969 12.7203981 262.47158813 11.92126495 262.76885986 11.09791565 C263.03567566 10.36153366 263.30249146 9.62515167 263.57739258 8.86645508 C263.80558182 8.23564529 264.03377106 7.60483551 264.26887512 6.95491028 C265.14134136 4.62207595 266.07499761 2.31250598 267 0 C282.51 0 298.02 0 314 0 C311.75008535 10.12461591 311.75008535 10.12461591 310.40625 13.7421875 C310.10339584 14.56635666 309.80054169 15.39052582 309.48851013 16.2396698 C308.99919762 17.54415825 308.99919762 17.54415825 308.5 18.875 C308.15256241 19.81575882 307.80512482 20.75651764 307.44715881 21.7257843 C306.30340574 24.81918132 305.15164003 27.90953156 304 31 C303.18744916 33.19402486 302.37553013 35.3882838 301.56420898 37.58276367 C299.87975707 42.13731608 298.19260154 46.69085277 296.50341797 51.24365234 C293.03659118 60.59298214 289.59909035 69.95305333 286.16326904 79.31381226 C285.05813085 82.32440232 283.95224024 85.33471509 282.84619141 88.3449707 C277.17352309 103.78677826 271.52046599 119.23572864 265.875 134.6875 C265.28998215 136.28859116 265.28998215 136.28859116 264.69314575 137.92202759 C263.56339833 141.01432926 262.43396438 144.10674521 261.3046875 147.19921875 C260.82900078 148.50153946 260.82900078 148.50153946 260.34370422 149.83016968 C256.55229101 160.21642373 252.77853542 170.6090276 249 181 C231.84 181 214.68 181 197 181 C188.96753798 160.34509768 188.96753798 160.34509768 185.36328125 150.15234375 C184.96116928 149.02252579 184.55905731 147.89270782 184.14476013 146.72865295 C183.29775531 144.34822148 182.45186337 141.96739375 181.60705566 139.58618164 C179.4114681 133.39795796 177.20743988 127.21274149 175.00390625 121.02734375 C174.35680191 119.21005264 174.35680191 119.21005264 173.69662476 117.35604858 C170.08601889 107.22336937 166.43547365 97.10567006 162.75 87 C162.49779694 86.30832733 162.24559387 85.61665466 161.98574829 84.90402222 C160.65958383 81.26846154 159.33115438 77.63373648 158 74 C155.98393931 77.02409104 154.8680778 79.72300176 153.5925293 83.11914062 C153.35930529 83.73695247 153.12608128 84.35476431 152.88578987 84.99129772 C152.11161317 87.04492755 151.34290204 89.1005583 150.57421875 91.15625 C150.02918053 92.60557236 149.48382021 94.05477363 148.93815613 95.50386047 C147.48311095 99.37092944 146.03283969 103.23977231 144.58358002 107.1090126 C143.39343544 110.28464496 142.20048433 113.45921946 141.0074501 116.63376713 C132.95173658 138.0694601 124.94004442 159.52116188 117 181 C99.84 181 82.68 181 65 181 C56.97664054 160.36850424 56.97664054 160.36850424 53.64453125 150.92578125 C53.07539757 149.32468254 53.07539757 149.32468254 52.49476624 147.6912384 C51.6851459 145.41344581 50.87658459 143.13527655 50.06903076 140.85675049 C47.87439358 134.66641745 45.67010939 128.4795215 43.46484375 122.29296875 C43.12533566 121.34025085 43.12533566 121.34025085 42.77896881 120.36828613 C37.87072744 106.59876734 32.88135567 92.85911511 27.875 79.125 C26.23144812 74.61339876 24.58829624 70.10165192 22.9453125 65.58984375 C22.54136765 64.48058533 22.13742279 63.3713269 21.72123718 62.22845459 C17.45410751 50.50679789 13.20016073 38.78040607 8.96392822 27.04754639 C8.159548 24.82109279 7.35402004 22.59505349 6.54730225 20.3694458 C5.43994799 17.3137932 4.33660805 14.25672172 3.234375 11.19921875 C2.9042038 10.29063614 2.57403259 9.38205353 2.2338562 8.44593811 C1.93722076 7.62032883 1.64058533 6.79471954 1.33496094 5.9440918 C0.94579498 4.86722359 0.94579498 4.86722359 0.54876709 3.76860046 C0 2 0 2 0 0 Z " fill="#FEFEFE" transform="translate(1243,202)"/>
<path d="M0 0 C2.23188799 2.26357808 4.09017523 4.43681412 6 7 C4.9254319 10.22370429 4.3944369 10.74568921 1.875 12.8125 C-2.33162337 16.37602447 -6.35710261 20.10248188 -10.375 23.875 C-11.68085677 25.09259037 -12.98684504 26.31003973 -14.29296875 27.52734375 C-16.5639205 29.64716996 -18.81704529 31.78245221 -21.05078125 33.94140625 C-21.92089844 34.76511719 -22.79101562 35.58882813 -23.6875 36.4375 C-24.43386719 37.15808594 -25.18023438 37.87867188 -25.94921875 38.62109375 C-28 40 -28 40 -30.046875 39.9453125 C-32.4450583 38.78459178 -33.77338306 37.41209774 -35.5625 35.4375 C-49.03968707 21.48523584 -66.5998447 13.98700277 -85.8984375 12.97265625 C-105.82062672 13.14829268 -126.07959884 19.29749467 -140.75 33.125 C-155.75956494 48.9142826 -161.53354135 68.19236459 -161.35327148 89.57763672 C-161.0266138 101.79393171 -158.42303004 112.99855225 -153 124 C-152.58105469 124.85078125 -152.16210938 125.7015625 -151.73046875 126.578125 C-143.59388423 141.49128855 -129.42255103 151.57212279 -113.6171875 156.9921875 C-91.90272074 163.04222251 -70.1734317 161.39946374 -50.1796875 150.94921875 C-46.23440353 148.53067244 -42.95280737 145.75400279 -39.671875 142.50390625 C-38 141 -38 141 -36 141 C-35.773125 140.4225 -35.54625 139.845 -35.3125 139.25 C-33.66961977 136.4336339 -31.60466773 134.91922886 -29 133 C-28.38125 133.63615234 -28.38125 133.63615234 -27.75 134.28515625 C-24.08912202 138.00323545 -20.32289008 141.50920094 -16.37109375 144.9140625 C-13.34350144 147.57754568 -10.39214436 150.31863175 -7.4375 153.0625 C-3.03896967 157.14400776 1.39788157 161.14706364 6 165 C-2.6806977 183.63074269 -26.53570242 194.87547559 -44.73828125 201.53125 C-59.55068667 206.74259794 -74.5728196 208.39409659 -90.1875 208.3125 C-91.27575073 208.30976578 -91.27575073 208.30976578 -92.38598633 208.30697632 C-103.49777973 208.26002982 -114.18862201 207.71700964 -125 205 C-125.68304199 204.83902832 -126.36608398 204.67805664 -127.06982422 204.51220703 C-144.66193299 200.28181081 -160.97759367 192.44387035 -175 181 C-175.52142578 180.57493164 -176.04285156 180.14986328 -176.58007812 179.71191406 C-198.18820059 161.74120396 -212.48716766 135.66713366 -217 108 C-217.18304687 106.99066406 -217.36609375 105.98132813 -217.5546875 104.94140625 C-221.44613412 70.49869008 -213.39371115 37.4616195 -192 10 C-170.15328958 -16.65480109 -138.1941765 -30.96460659 -104.30859375 -34.37109375 C-65.96171352 -37.45559951 -28.03988581 -27.11787796 0 0 Z " fill="#FEFEFE" transform="translate(878,179)"/>
<path d="M0 0 C10.57890579 10.16383983 18.25222927 22.07735961 23.08569336 35.99291992 C23.47885742 37.06670898 23.87202148 38.14049805 24.27709961 39.24682617 C29.91246889 57.4488726 29.62731882 80.07361585 23.08569336 97.99291992 C22.5771582 99.50499023 22.5771582 99.50499023 22.05834961 101.04760742 C13.52963015 123.93249879 -3.2876492 140.28044655 -24.91430664 150.99291992 C-39.97872717 157.8690929 -54.92450162 160.51677473 -71.41430664 160.36791992 C-72.69950195 160.37952148 -73.98469727 160.39112305 -75.30883789 160.40307617 C-97.4182921 160.3364145 -119.92569041 153.564599 -136.91430664 138.99291992 C-137.73543945 138.29166992 -138.55657227 137.59041992 -139.40258789 136.86791992 C-157.90949349 120.63667827 -169.10318582 98.54217217 -170.72680664 73.86791992 C-171.99498827 47.10312511 -163.88400725 22.66089093 -145.82055664 2.67651367 C-109.13699838 -35.49247036 -38.18234737 -35.83266446 0 0 Z M-102.66040039 29.64916992 C-114.05087989 41.49368933 -117.43913892 55.23493613 -117.19946289 71.32885742 C-116.94444117 77.6211019 -115.27965079 83.18257976 -112.91430664 88.99291992 C-112.49858398 90.09313477 -112.49858398 90.09313477 -112.07446289 91.21557617 C-107.38472308 102.08626337 -98.14089733 109.19047115 -87.69165039 114.02026367 C-77.3009157 117.88782701 -63.42087719 117.6895151 -53.29711914 113.24682617 C-41.43402356 107.00411522 -33.41042019 98.80161549 -28.91430664 85.99291992 C-24.78961255 72.34076342 -25.12175394 56.08332686 -30.91430664 42.99291992 C-31.26493164 42.17952148 -31.61555664 41.36612305 -31.97680664 40.52807617 C-37.5448234 29.21804214 -46.8442616 22.87507887 -58.41430664 18.74291992 C-74.81984659 15.22744708 -90.36793185 17.7991533 -102.66040039 29.64916992 Z " fill="#FEFEFE" transform="translate(1210.914306640625,226.007080078125)"/>
<path d="M0 0 C1.39992188 0.62841797 1.39992188 0.62841797 2.828125 1.26953125 C19.07736202 9.32451017 29.11601306 23.12680216 35 40 C38.26204847 50.81912742 39.15301849 61.14338937 39.11352539 72.39477539 C39.11367142 73.4982431 39.11381744 74.60171082 39.1139679 75.73861694 C39.11327546 79.35831724 39.10551457 82.97796503 39.09765625 86.59765625 C39.09578969 89.11828076 39.09436691 91.63890564 39.09336853 94.15953064 C39.08995041 100.09849702 39.08208209 106.03744676 39.07201904 111.97640461 C39.0577315 120.59744162 39.0525341 129.21848506 39.04621124 137.83953094 C39.03653507 149.89303603 39.01736539 161.9464925 39 174 C22.5 174 6 174 -11 174 C-11.495 165.09 -11.495 165.09 -12 156 C-12.928125 157.175625 -13.85625 158.35125 -14.8125 159.5625 C-24.18458905 170.15052875 -38.10727012 175.59368072 -52 177 C-75.46015907 178.1991874 -98.12767579 176.50889494 -116.625 160.5 C-118.11550568 159.03196426 -119.57749562 157.53402002 -121 156 C-121.87205078 155.06414062 -121.87205078 155.06414062 -122.76171875 154.109375 C-132.21022809 142.7806837 -133.95479498 128.1804736 -133 114 C-131.2208958 102.14935677 -125.59177839 90.36291963 -116 83 C-91.57016473 66.32913027 -62.42555297 66.80750716 -33.9375 66.9375 C-31.99153763 66.94253168 -30.04557398 66.9470916 -28.09960938 66.95117188 C-23.39970713 66.96203005 -18.69986832 66.97919987 -14 67 C-14.60124167 64.60446307 -15.21190315 62.2119992 -15.828125 59.8203125 C-16.07973389 58.81158081 -16.07973389 58.81158081 -16.33642578 57.7824707 C-18.26849185 50.34900524 -21.30863325 44.56020387 -27.6875 40.125 C-43.85213244 31.24669809 -63.46632785 33.34827149 -80.5625 38.125 C-87.87210793 40.28215399 -94.34324803 43.53012024 -100.92578125 47.328125 C-103.45793136 48.70520282 -105.25288531 49.3990107 -108 50 C-110.40789083 45.23369295 -112.81049221 40.46477108 -115.20825195 35.69335938 C-116.02451417 34.07088624 -116.84221165 32.44913434 -117.66137695 30.828125 C-118.83924273 28.49667934 -120.0119059 26.16268028 -121.18359375 23.828125 C-121.55028671 23.10506165 -121.91697968 22.38199829 -122.29478455 21.63702393 C-123.8895452 18.44821058 -125.2259616 15.47804959 -126 12 C-89.99433121 -9.85860324 -39.3513707 -17.78967406 0 0 Z M-75.7734375 106.7109375 C-80.26211902 111.70538595 -81.42184824 115.67026377 -81.34375 122.3671875 C-80.59367205 128.11210273 -77.18117118 131.79198402 -73.25 135.8125 C-64.09111461 141.9771344 -53.73900132 142.10451011 -43 141 C-39.28651253 140.16375664 -36.28284117 138.90559135 -33 137 C-32.23558594 136.57589844 -31.47117187 136.15179688 -30.68359375 135.71484375 C-23.51960528 131.36311471 -16.52586591 125.20106665 -14 117 C-13.76409629 113.89083041 -13.8110621 110.80324308 -13.875 107.6875 C-13.88402344 106.85154297 -13.89304687 106.01558594 -13.90234375 105.15429688 C-13.92579011 103.10274031 -13.96165734 101.05133223 -14 99 C-18.99469612 98.94980981 -23.98923904 98.91391512 -28.98413086 98.89013672 C-30.67621423 98.88020308 -32.36828102 98.86665157 -34.06030273 98.84912109 C-56.4076111 97.78050318 -56.4076111 97.78050318 -75.7734375 106.7109375 Z " fill="#FEFEFE" transform="translate(2739,209)"/>
<path d="M0 0 C15.07525697 15.97649516 19.62653434 36.46159828 19.47705078 57.8449707 C19.47734283 58.96852966 19.47763489 60.09208862 19.47793579 61.24969482 C19.47655776 64.91263936 19.4610693 68.57537286 19.4453125 72.23828125 C19.44157693 74.79802845 19.43873253 77.3577771 19.43673706 79.91752625 C19.42991689 85.93430749 19.41420213 91.95100006 19.39403808 97.96774596 C19.36934749 105.50126947 19.35851091 113.03480541 19.34765625 120.56835938 C19.32826743 133.98313038 19.28818847 147.39774014 19.25 160.8125 C2.75 160.8125 -13.75 160.8125 -30.75 160.8125 C-31.245 151.9025 -31.245 151.9025 -31.75 142.8125 C-32.678125 143.988125 -33.60625 145.16375 -34.5625 146.375 C-44.38900332 157.5459746 -59.2129839 162.97245728 -73.8112793 164.03540039 C-97.05444337 164.85036328 -118.62665521 162.62121255 -136.875 146.9375 C-147.26160683 136.73775866 -152.43690525 123.70276526 -153 109.25 C-152.81258935 95.5690224 -148.57932465 82.98612227 -139.17578125 72.98046875 C-125.81600477 61.0405719 -107.66871484 55.95095186 -90.125 54.625 C-89.1131665 54.54459473 -88.10133301 54.46418945 -87.05883789 54.38134766 C-69.33806265 53.1790267 -51.49957221 53.64962541 -33.75 53.8125 C-34.18586653 51.58146714 -34.63346669 49.35272472 -35.0859375 47.125 C-35.4579126 45.26294922 -35.4579126 45.26294922 -35.83740234 43.36328125 C-37.87210593 35.44655335 -42.33898755 30.21352507 -49.2734375 26.02734375 C-66.51471408 17.56987212 -87.1015336 20.61432546 -104.71875 26.3125 C-109.78952918 28.0964835 -114.37408866 30.55014765 -119.015625 33.26171875 C-121.55078501 34.69951664 -124.03871049 35.76123586 -126.75 36.8125 C-145.75 2.33431415 -145.75 2.33431415 -145.75 -1.1875 C-105.08762212 -25.92144296 -37.86565605 -35.22086576 0 0 Z M-95.265625 93.23046875 C-98.89524433 97.28771565 -100.56542076 100.81904417 -101.0625 106.1875 C-100.47143696 113.0438313 -97.57075955 117.99174045 -92.75 122.8125 C-82.86446986 128.99587941 -70.76985089 129.32950794 -59.5078125 127.19921875 C-48.71163688 123.64743344 -40.16174496 116.76845828 -34.75 106.8125 C-33.57573736 104.46397472 -33.63491827 103.07475935 -33.65234375 100.4609375 C-33.65556641 99.61015625 -33.65878906 98.759375 -33.66210938 97.8828125 C-33.67048828 96.99335938 -33.67886719 96.10390625 -33.6875 95.1875 C-33.69201172 94.2903125 -33.69652344 93.393125 -33.70117188 92.46875 C-33.71297409 90.24993352 -33.72943845 88.03124982 -33.75 85.8125 C-38.74469612 85.76230981 -43.73923904 85.72641512 -48.73413086 85.70263672 C-50.42621423 85.69270308 -52.11828102 85.67915157 -53.81030273 85.66162109 C-75.94173835 84.59931234 -75.94173835 84.59931234 -95.265625 93.23046875 Z " fill="#FEFEFE" transform="translate(2321.75,222.1875)"/>
<path d="M0 0 C12.38494391 11.75422918 18.21952546 26.02177076 21.53125 42.40234375 C21.79771584 43.64517624 21.79771584 43.64517624 22.06956482 44.91311646 C22.72794193 49.88886068 22.66158283 54.81009908 22.64477539 59.82373047 C22.64492142 60.96577438 22.64506744 62.1078183 22.6452179 63.2844696 C22.64452256 67.05034297 22.63674784 70.81616655 22.62890625 74.58203125 C22.62704073 77.19662448 22.62561746 79.81121806 22.62461853 82.42581177 C22.62151557 88.59862359 22.61331618 94.77141762 22.60326904 100.94422162 C22.59097682 108.66463391 22.58551717 116.38504911 22.58007812 124.10546875 C22.57035014 137.8711076 22.55031598 151.63670764 22.53125 165.40234375 C5.04125 165.40234375 -12.44875 165.40234375 -30.46875 165.40234375 C-30.50613281 158.02246094 -30.54351563 150.64257812 -30.58203125 143.0390625 C-30.61232532 138.34958651 -30.6434827 133.66014781 -30.67773438 128.97070312 C-30.73195752 121.53574554 -30.7830717 114.10086172 -30.81518555 106.66577148 C-30.84129182 100.66802033 -30.8817462 94.67051839 -30.93193626 88.67292213 C-30.94855547 86.3905632 -30.96010042 84.1081612 -30.96636391 81.82575035 C-30.9760588 78.616237 -31.00418271 75.40735418 -31.03637695 72.19799805 C-31.03494186 71.26506927 -31.03350677 70.3321405 -31.0320282 69.37094116 C-31.18283113 58.66411482 -33.9606897 46.95285024 -40.99609375 38.5859375 C-48.58904927 31.4574922 -58.30781368 29.31376772 -68.46875 29.40234375 C-79.22691652 30.01375104 -89.67484962 33.01004138 -97.34375 40.96484375 C-109.14095331 56.07910912 -108.78183438 73.30504933 -108.8828125 91.4765625 C-108.90154739 93.61319202 -108.92112249 95.74981433 -108.9414978 97.88642883 C-108.99257992 103.47744469 -109.03233296 109.06848447 -109.06964111 114.65960693 C-109.11691269 121.38545422 -109.17840702 128.11118502 -109.23748779 134.83693695 C-109.32540801 145.02535824 -109.39538139 155.21376051 -109.46875 165.40234375 C-126.95875 165.40234375 -144.44875 165.40234375 -162.46875 165.40234375 C-162.46875 105.67234375 -162.46875 45.94234375 -162.46875 -15.59765625 C-145.63875 -15.59765625 -128.80875 -15.59765625 -111.46875 -15.59765625 C-110.97375 -6.19265625 -110.97375 -6.19265625 -110.46875 3.40234375 C-108.98375 2.18546875 -107.49875 0.96859375 -105.96875 -0.28515625 C-76.87449734 -23.33332294 -28.65074899 -24.74008641 0 0 Z " fill="#FEFEFE" transform="translate(2549.46875,217.59765625)"/>
<path d="M0 0 C5.40228515 5.69853949 9.53215444 11.97698903 13 19 C13.35835937 19.69480469 13.71671875 20.38960937 14.0859375 21.10546875 C19.90698091 33.11957714 21.15814488 46.2938637 21.11352539 59.44311523 C21.11367142 60.57555161 21.11381744 61.70798798 21.1139679 62.8747406 C21.11327349 66.60271141 21.10550316 70.33063171 21.09765625 74.05859375 C21.0957904 76.64933749 21.09436728 79.24008159 21.09336853 81.83082581 C21.08994577 87.94339814 21.08207125 94.05594976 21.07201904 100.16851431 C21.05971911 107.81481337 21.05426546 115.46111539 21.04882812 123.10742188 C21.03910505 136.73829526 21.01907008 150.36912938 21 164 C3.51 164 -13.98 164 -32 164 C-32.05607422 153.05585938 -32.05607422 153.05585938 -32.11328125 141.890625 C-32.14357933 137.25127906 -32.17473933 132.61197064 -32.20898438 127.97265625 C-32.26318385 120.61899774 -32.31429881 113.26541343 -32.34643555 105.91162109 C-32.37256338 99.97870287 -32.41303262 94.04603566 -32.46318626 88.11327362 C-32.47979101 85.85686124 -32.49134488 83.6004055 -32.49761391 81.34394073 C-32.32544687 57.83825616 -32.32544687 57.83825616 -42.52734375 37.1875 C-50.11018484 30.05070839 -59.84393235 27.91146641 -70 28 C-79.50733791 28.54032029 -86.75879215 31.36982521 -95 36 C-95.73089844 36.309375 -96.46179687 36.61875 -97.21484375 36.9375 C-99.560475 38.33358687 -99.94931304 39.48343526 -101 42 C-101.5465625 43.09570312 -102.093125 44.19140625 -102.65625 45.3203125 C-103.2716721 46.58813486 -103.88623244 47.85637583 -104.5 49.125 C-104.80808594 49.73859375 -105.11617187 50.3521875 -105.43359375 50.984375 C-109.42877417 59.31766978 -110.29617069 67.89534206 -110.31884766 77.03955078 C-110.33391609 78.4608857 -110.33391609 78.4608857 -110.34928894 79.91093445 C-110.37988506 83.00572163 -110.39708993 86.10042327 -110.4140625 89.1953125 C-110.43279315 91.35579146 -110.45236795 93.51626326 -110.4727478 95.67672729 C-110.52387462 101.3351619 -110.56360403 106.99362017 -110.60089111 112.65216064 C-110.64812706 119.45640962 -110.70964093 126.26054295 -110.76873779 133.06469727 C-110.85671266 143.37641766 -110.92664704 153.68811856 -111 164 C-128.49 164 -145.98 164 -164 164 C-164 104.27 -164 44.54 -164 -17 C-147.17 -17 -130.34 -17 -113 -17 C-112.505 -7.595 -112.505 -7.595 -112 2 C-110.515 0.783125 -109.03 -0.43375 -107.5 -1.6875 C-77.97268118 -25.07873723 -28.26472302 -26.21294191 0 0 Z " fill="#FEFEFE" transform="translate(1744,219)"/>
<path d="M0 0 C0 16.17 0 32.34 0 49 C-4.62 49 -9.24 49 -14 49 C-25.74742448 49.77392079 -36.77269776 52.4838266 -46 60 C-46.66 60 -47.32 60 -48 60 C-48.28101563 60.59039062 -48.56203125 61.18078125 -48.8515625 61.7890625 C-49.89905939 63.80567216 -51.06226037 65.52713084 -52.375 67.375 C-60.15562262 80.09038131 -59.60361914 94.22104518 -59.609375 108.5859375 C-59.62438304 110.74070461 -59.64111561 112.89546034 -59.65948486 115.05020142 C-59.70287595 120.67574642 -59.72309445 126.30113633 -59.73822021 131.92681885 C-59.76136294 138.70116107 -59.81375949 145.47533466 -59.86116028 152.24954224 C-59.92965452 162.49973843 -59.96136243 172.74945222 -60 183 C-77.49 183 -94.98 183 -113 183 C-113 123.27 -113 63.54 -113 2 C-96.17 2 -79.34 2 -62 2 C-61.505 12.395 -61.505 12.395 -61 23 C-59.80375 21.68 -58.6075 20.36 -57.375 19 C-42.03322198 3.75425815 -20.93613627 0 0 0 Z " fill="#FEFEFE" transform="translate(1026,200)"/>
</svg>
